SplineFontDB: 3.0
FontName: fontello
FullName: fontello
FamilyName: fontello
Weight: Regular
ItalicAngle: 0
UnderlinePosition: 0
UnderlineWidth: 0
Ascent: 850
Descent: 150
InvalidEm: 0
LayerCount: 2
Layer: 0 1 "Back" 1
Layer: 1 1 "Fore" 0
XUID: [1021 207 291170519 16177967]
OS2Version: 0
OS2_WeightWidthSlopeOnly: 0
OS2_UseTypoMetrics: 0
CreationTime: 1545432986
ModificationTime: 1572541544
PfmFamily: 17
TTFWeight: 400
TTFWidth: 5
LineGap: 90
VLineGap: 90
Panose: 2 0 5 3 0 0 0 0 0 0
OS2TypoAscent: 0
OS2TypoAOffset: 1
OS2TypoDescent: 0
OS2TypoDOffset: 1
OS2TypoLinegap: 90
OS2WinAscent: 0
OS2WinAOffset: 1
OS2WinDescent: 0
OS2WinDOffset: 1
HheadAscent: 0
HheadAOffset: 1
HheadDescent: 0
HheadDOffset: 1
OS2Vendor: 'PfEd'
DEI: 91125
Encoding: Original
UnicodeInterp: none
NameList: AGL For New Fonts
DisplaySize: -48
AntiAlias: 1
FitToEm: 0
WinInfo: 0 16 4
BeginChars: 39 39

StartChar: chat
Encoding: 1 59392 1
Width: 1179
Flags: W
LayerCount: 2
Fore
SplineSet
1179 385 m 0,0,1
 1179 259 1179 259 1100 152 c 128,-1,2
 1021 45 1021 45 885 -18 c 0,3,4
 751 -80 751 -80 594 -80 c 0,5,6
 592 -80 592 -80 589 -80 c 0,7,8
 467 -80 467 -80 355 -41 c 1,9,-1
 357 -44 l 1,10,-1
 0 -151 l 1,11,12
 44 -92 44 -92 71 -25 c 128,-1,13
 98 42 98 42 102 81 c 2,14,-1
 106 119 l 1,15,16
 0 239 0 239 0 385 c 0,17,18
 0 511 0 511 79 618 c 128,-1,19
 158 725 158 725 294 787 c 128,-1,20
 430 849 430 849 589 849 c 128,-1,21
 748 849 748 849 885 787 c 128,-1,22
 1022 725 1022 725 1100 618 c 128,-1,23
 1178 511 1178 511 1179 385 c 0,0,1
929 385 m 0,24,25
 929 414 929 414 908 435 c 128,-1,26
 887 456 887 456 857 456 c 0,27,28
 828 456 828 456 807 435 c 128,-1,29
 786 414 786 414 786 385 c 0,30,31
 786 355 786 355 807 334 c 128,-1,32
 828 313 828 313 857 313 c 0,33,34
 887 313 887 313 908 334 c 128,-1,35
 929 355 929 355 929 385 c 0,24,25
679 385 m 0,36,37
 679 414 679 414 658 435 c 128,-1,38
 637 456 637 456 607 456 c 0,39,40
 578 456 578 456 557 435 c 128,-1,41
 536 414 536 414 536 385 c 0,42,43
 536 355 536 355 557 334 c 128,-1,44
 578 313 578 313 607 313 c 0,45,46
 637 313 637 313 658 334 c 128,-1,47
 679 355 679 355 679 385 c 0,36,37
429 385 m 0,48,49
 429 414 429 414 408 435 c 128,-1,50
 387 456 387 456 357 456 c 0,51,52
 328 456 328 456 307 435 c 128,-1,53
 286 414 286 414 286 385 c 0,54,55
 286 355 286 355 307 334 c 128,-1,56
 328 313 328 313 357 313 c 0,57,58
 387 313 387 313 408 334 c 128,-1,59
 429 355 429 355 429 385 c 0,48,49
EndSplineSet
Validated: 1
EndChar

StartChar: help
Encoding: 2 59393 2
Width: 580
Flags: W
LayerCount: 2
Fore
SplineSet
500 766 m 0,0,1
 615 766 615 766 709 711 c 0,2,3
 807 654 807 654 861 559 c 0,4,5
 916 463 916 463 916 350 c 0,6,7
 916 235 916 235 861 141 c 0,8,9
 804 43 804 43 709 -11 c 0,10,11
 613 -66 613 -66 500 -66 c 0,12,13
 385 -66 385 -66 291 -11 c 0,14,15
 193 46 193 46 139 141 c 0,16,17
 84 237 84 237 84 350 c 128,-1,18
 84 463 84 463 139 559 c 0,19,20
 195 655 195 655 291 710.5 c 128,-1,21
 387 766 387 766 500 766 c 0,0,1
500 -33 m 0,22,23
 605 -33 605 -33 692 18 c 0,24,25
 781 70 781 70 832 158 c 128,-1,26
 883 246 883 246 883 350 c 0,27,28
 883 453 883 453 832 542 c 0,29,30
 781 630 781 630 692 682 c 0,31,32
 604 733 604 733 500 733 c 0,33,34
 397 733 397 733 308 682 c 0,35,36
 220 631 220 631 168 542 c 0,37,38
 117 454 117 454 117 350 c 128,-1,39
 117 246 117 246 168 158 c 0,40,41
 220 69 220 69 308 18 c 128,-1,42
 396 -33 396 -33 500 -33 c 0,22,23
499 568 m 0,43,44
 549 568 549 568 583 539 c 128,-1,45
 617 510 617 510 617 460 c 0,46,47
 617 429 617 429 604 407 c 0,48,49
 590 384 590 384 566 361 c 0,50,51
 535 332 535 332 528 317 c 0,52,53
 522 304 522 304 521 267 c 1,54,-1
 483 267 l 1,55,56
 485 306 485 306 497 330 c 0,57,58
 508 351 508 351 542 383 c 0,59,60
 580 418 580 418 580 459 c 0,61,62
 580 493 580 493 556 515 c 128,-1,63
 532 537 532 537 497 537 c 0,64,65
 496 537 496 537 494 537 c 128,-1,66
 492 537 492 537 491 537 c 128,-1,67
 490 537 490 537 488 537 c 0,68,69
 487 537 487 537 485.482222222 537.033333333 c 0,70,71
 484.540022823 537.054025853 484.540022823 537.054025853 483.606063702 537.054025853 c 0,72,73
 449.217124844 537.054025853 449.217124844 537.054025853 426 509 c 0,74,75
 403 481 403 481 403 437 c 0,76,77
 403 435 403 435 403 433 c 1,78,-1
 366 433 l 1,79,80
 367 475 367 475 382 505 c 128,-1,81
 397 535 397 535 427 551.5 c 128,-1,82
 457 568 457 568 499 568 c 0,43,44
500 200 m 128,-1,84
 514 200 514 200 524 190 c 0,85,86
 533 181 533 181 533 167 c 0,87,88
 533 154 533 154 523 143 c 0,89,90
 514 133 514 133 500 133 c 0,91,92
 485 133 485 133 476 143 c 128,-1,93
 467 153 467 153 467 167 c 128,-1,94
 467 181 467 181 476.5 190.5 c 128,-1,83
 486 200 486 200 500 200 c 128,-1,84
EndSplineSet
Validated: 524289
EndChar

StartChar: comment
Encoding: 3 59394 3
Width: 1000
Flags: W
LayerCount: 2
Fore
SplineSet
0 96 m 1
 0 809 l 1
 1000 809 l 1
 1000 96 l 1
 527 96 l 1
 207 -109 l 1
 207 96 l 1
 0 96 l 1
EndSplineSet
Validated: 1
EndChar

StartChar: comment-alt
Encoding: 4 59395 4
Width: 1000
Flags: W
LayerCount: 2
Fore
SplineSet
0 192 m 1
 0 799 l 1
 854 799 l 1
 854 192 l 1
 449 192 l 1
 176 16 l 1
 176 192 l 1
 0 192 l 1
348 80 m 1
 467 157 l 1
 596 157 l 1
 605 151 l 1
 775 39 l 1
 775 157 l 1
 924 157 l 1
 924 590 l 1
 893 590 l 1
 893 666 l 1
 1000 666 l 1
 1000 80 l 1
 852 80 l 1
 852 -99 l 1
 793 -62 l 1
 572 80 l 1
 348 80 l 1
EndSplineSet
Validated: 513
EndChar

StartChar: chart-line
Encoding: 5 59396 5
Width: 1003
Flags: W
LayerCount: 2
Fore
SplineSet
34 284 m 2,0,1
 0.0769230769231 292.076923077 0.0769230769231 292.076923077 0.0769230769231 323.639053254 c 0,2,3
 0.0769230769231 331.153846154 0.0769230769231 331.153846154 2 340 c 0,4,5
 10.0769230769 373.923076923 10.0769230769 373.923076923 40.3343195266 373.923076923 c 0,6,7
 47.5384615385 373.923076923 47.5384615385 373.923076923 56 372 c 2,8,-1
 154 348 l 1,9,-1
 102 268 l 1,10,-1
 34 284 l 2,0,1
924 272 m 2,11,12
 936.923076923 283.076923077 936.923076923 283.076923077 954.106508876 283.076923077 c 0,13,14
 955.538461538 283.076923077 955.538461538 283.076923077 957 283 c 0,15,16
 976 282 976 282 988 268 c 0,17,18
 1003.51515152 252.484848485 1003.51515152 252.484848485 1003.51515152 236.96969697 c 0,19,20
 1003.51515152 220.484848485 1003.51515152 220.484848485 986 204 c 2,21,-1
 734 -22 l 2,22,23
 722 -34 722 -34 704 -34 c 0,24,25
 690 -34 690 -34 676 -24 c 2,26,-1
 390 196 l 1,27,-1
 336 210 l 1,28,-1
 386 290 l 1,29,-1
 422 282 l 2,30,31
 434 278 434 278 438 274 c 2,32,-1
 702 70 l 1,33,-1
 924 272 l 2,11,12
434 492 m 1,34,-1
 84 -58 l 2,35,36
 72 -80 72 -80 46 -80 c 0,37,38
 34 -80 34 -80 22 -72 c 0,39,40
 6 -62 6 -62 2 -43 c 0,41,42
 0.857142857143 -37.5714285714 0.857142857143 -37.5714285714 0.857142857143 -32.5510204082 c 0,43,44
 0.857142857143 -20 0.857142857143 -20 8 -10 c 2,45,-1
 382 578 l 2,46,47
 390 594 390 594 410 598 c 0,48,49
 416 600 416 600 422 600 c 0,50,-1
 446 592 l 2,51,-1
 692 436 l 1,52,-1
 918 762 l 2,53,54
 928 778 928 778 946 781 c 0,55,56
 949.6 781.6 949.6 781.6 953.12 781.6 c 0,57,58
 967.2 781.6 967.2 781.6 980 772 c 0,59,60
 1002.5625 757.75 1002.5625 757.75 1002.5625 738.564453125 c 0,61,62
 1002.5625 725.4375 1002.5625 725.4375 992 710 c 2,63,-1
 740 348 l 2,64,65
 725.6 326.4 725.6 326.4 706.16 326.4 c 0,66,67
 693.2 326.4 693.2 326.4 678 336 c 2,68,-1
 434 492 l 1,34,-1
EndSplineSet
Validated: 524801
EndChar

StartChar: coffee
Encoding: 6 59397 6
Width: 1071
Flags: W
LayerCount: 2
Fore
SplineSet
0 64 m 1
 1000 64 l 1
 1000 5 1000 5 958 -37 c 0
 916 -79 916 -79 857 -79 c 2
 143 -79 l 2
 84 -79 84 -79 42 -37 c 0
 0 5 0 5 0 64 c 1
143 261 m 2
 143 671 l 2
 143 686 143 686 154 697 c 0
 165 708 165 708 179 707 c 2
 821 707 l 2
 910 707 910 707 973 644 c 0
 1036 581 1036 581 1036 493 c 0
 1036 405 1036 405 973 341 c 0
 910 277 910 277 821 279 c 2
 786 279 l 1
 786 261 l 2
 786 209 786 209 749 173 c 0
 712 137 712 137 661 136 c 2
 268 136 l 2
 217 136 217 136 180 173 c 0
 143 210 143 210 143 261 c 2
786 386 m 1
 821 386 l 2
 866 386 866 386 897 417 c 0
 928 448 928 448 929 493 c 0
 930 538 930 538 897 569 c 0
 864 600 864 600 821 600 c 2
 786 600 l 1
 786 386 l 1
EndSplineSet
Validated: 33
EndChar

StartChar: tag
Encoding: 7 59398 7
Width: 960
Flags: W
LayerCount: 2
Fore
SplineSet
774.4375 799.8125 m 1,0,-1
 949.8125 624.8125 l 1,1,-1
 949.8125 403.0625 l 1,2,-1
 445.59375 -99.84375 l 1,3,-1
 50.1875 296.4375 l 1,4,-1
 554.90625 799.8125 l 1,5,-1
 774.4375 799.8125 l 1,0,-1
916.5 416.90625 m 1,6,-1
 916.5 611.03125 l 1,7,-1
 760.625 766.53125 l 1,8,-1
 568.65625 766.53125 l 1,9,-1
 97.3125 296.40625 l 1,10,-1
 445.65625 -52.6875 l 1,11,-1
 916.5 416.90625 l 1,6,-1
683.34375 600.03125 m 128,-1,13
 683.34375 627.551151768 683.34375 627.551151768 702.881048101 647.056825884 c 128,-1,14
 722.418346202 666.5625 722.418346202 666.5625 750 666.5625 c 128,-1,15
 777.581653798 666.5625 777.581653798 666.5625 797.118951899 647.056825884 c 128,-1,16
 816.65625 627.551151768 816.65625 627.551151768 816.65625 600.03125 c 128,-1,17
 816.65625 572.514325024 816.65625 572.514325024 797.120442286 553.022787512 c 128,-1,18
 777.584634572 533.53125 777.584634572 533.53125 750 533.53125 c 128,-1,19
 722.420770151 533.53125 722.420770151 533.53125 702.882260075 553.031808939 c 128,-1,12
 683.34375 572.532367878 683.34375 572.532367878 683.34375 600.03125 c 128,-1,13
783.3125 600.03125 m 128,-1,21
 783.3125 613.767487047 783.3125 613.767487047 773.545941558 623.508743523 c 128,-1,22
 763.779383117 633.25 763.779383117 633.25 750 633.25 c 128,-1,23
 736.220616883 633.25 736.220616883 633.25 726.454058442 623.508743523 c 128,-1,24
 716.6875 613.767487047 716.6875 613.767487047 716.6875 600.03125 c 128,-1,25
 716.6875 586.303357605 716.6875 586.303357605 726.461587695 576.573553803 c 128,-1,26
 736.23567539 566.84375 736.23567539 566.84375 750 566.84375 c 128,-1,27
 763.758908991 566.84375 763.758908991 566.84375 773.535704496 576.582577367 c 128,-1,20
 783.3125 586.321404733 783.3125 586.321404733 783.3125 600.03125 c 128,-1,21
EndSplineSet
Validated: 524289
EndChar

StartChar: tags
Encoding: 8 59399 8
Width: 1071
Flags: W
LayerCount: 2
Fore
SplineSet
0 475 m 2
 0 707 l 2
 0 736 0 736 21 757 c 0
 42 778 42 778 71 779 c 2
 304 779 l 2
 333 779 333 779 369 764 c 0
 405 749 405 749 426 728 c 2
 825 329 l 2
 845 308 845 308 845 279 c 0
 845 249 845 249 825 228 c 2
 551 -46 l 2
 529 -67 529 -67 500 -67 c 0
 470 -67 470 -67 450 -46 c 2
 51 353 l 2
 30 374 30 374 15 410 c 0
 0 446 0 446 0 475 c 2
107 600 m 0
 107 570 107 570 128 550 c 0
 149 530 149 530 179 529 c 0
 209 528 209 528 229 550 c 0
 249 572 249 572 250 600 c 0
 251 628 251 628 229 651 c 0
 207 674 207 674 179 671 c 0
 151 668 151 668 128 651 c 0
 105 634 105 634 107 600 c 0
393 779 m 2
 518 779 l 2
 547 779 547 779 583 764 c 0
 619 749 619 749 640 728 c 2
 1039 329 l 2
 1060 308 1060 308 1060 279 c 0
 1060 249 1060 249 1039 228 c 2
 765 -46 l 2
 743 -67 743 -67 714 -67 c 0
 694 -67 694 -67 681 -59 c 0
 668 -51 668 -51 652 -34 c 1
 914 228 l 2
 935 249 935 249 935 279 c 0
 935 308 935 308 914 329 c 2
 515 728 l 2
 494 749 494 749 458 764 c 0
 422 779 422 779 393 779 c 2
EndSplineSet
Validated: 33
EndChar

StartChar: spread
Encoding: 9 59400 9
Width: 1222
Flags: W
LayerCount: 2
Fore
SplineSet
816.53125 783.15625 m 128,-1,1
 871.7265625 783.21875 871.7265625 783.21875 910.76953125 744.17578125 c 128,-1,2
 949.8125 705.1328125 949.8125 705.1328125 949.8125 649.9375 c 128,-1,3
 949.8125 594.721166498 949.8125 594.721166498 910.770739303 555.673083249 c 128,-1,4
 871.728978607 516.625 871.728978607 516.625 816.53125 516.625 c 0,5,6
 780.407286028 516.625 780.407286028 516.625 749.895752423 534.516706673 c 128,-1,7
 719.384218818 552.408413345 719.384218818 552.408413345 701.6875 582.5 c 1,8,-1
 311.75 419.0625 l 1,9,10
 316.71875 401.106126238 316.71875 401.106126238 316.71875 383.34375 c 0,11,12
 316.71875 349.364583333 316.71875 349.364583333 300.53125 319.6875 c 1,13,-1
 551.25 139.53125 l 1,14,15
 591.094622093 183.40625 591.094622093 183.40625 649.90625 183.40625 c 0,16,17
 705.104542969 183.40625 705.104542969 183.40625 744.146021485 144.377416498 c 128,-1,18
 783.1875 105.348582996 783.1875 105.348582996 783.1875 50.15625 c 128,-1,19
 783.1875 -5.06008350202 783.1875 -5.06008350202 744.145739303 -44.108166751 c 128,-1,20
 705.103978607 -83.15625 705.103978607 -83.15625 649.90625 -83.15625 c 128,-1,21
 594.708521393 -83.15625 594.708521393 -83.15625 555.666760697 -44.108166751 c 128,-1,22
 516.625 -5.06008350202 516.625 -5.06008350202 516.625 50.15625 c 0,23,24
 516.625 83.0778264331 516.625 83.0778264331 532.0625 112.28125 c 1,25,-1
 281 292.71875 l 1,26,27
 241.365241359 250.03125 241.365241359 250.03125 183.4375 250.03125 c 0,28,29
 128.2421875 250.03125 128.2421875 250.03125 89.19921875 289.07421875 c 128,-1,30
 50.15625 328.1171875 50.15625 328.1171875 50.15625 383.3125 c 128,-1,31
 50.15625 438.5078125 50.15625 438.5078125 89.19921875 477.55078125 c 128,-1,32
 128.2421875 516.59375 128.2421875 516.59375 183.4375 516.59375 c 0,33,34
 207.675167549 516.59375 207.675167549 516.59375 230.010310461 508.175663656 c 128,-1,35
 252.345453373 499.757577313 252.345453373 499.757577313 269.812606206 484.77225301 c 128,-1,36
 287.279759039 469.786928708 287.279759039 469.786928708 298.84375 449.75 c 1,37,-1
 688.5 613.0625 l 1,38,39
 683.25 631.46203271 683.25 631.46203271 683.25 649.875 c 0,40,41
 683.25 705.0703125 683.25 705.0703125 722.29296875 744.11328125 c 128,-1,0
 761.3359375 783.15625 761.3359375 783.15625 816.53125 783.15625 c 128,-1,1
649.9375 150.0625 m 128,-1,43
 608.590774773 150.0625 608.590774773 150.0625 579.279762387 120.764138029 c 128,-1,44
 549.96875 91.4657760574 549.96875 91.4657760574 549.96875 50.125 c 128,-1,45
 549.96875 8.78125 549.96875 8.78125 579.28125 -20.53125 c 128,-1,46
 608.59375 -49.84375 608.59375 -49.84375 649.9375 -49.84375 c 128,-1,47
 691.275857942 -49.84375 691.275857942 -49.84375 720.591053971 -20.5222278606 c 128,-1,48
 749.90625 8.7992942787 749.90625 8.7992942787 749.90625 50.125 c 128,-1,49
 749.90625 91.4477317787 749.90625 91.4477317787 720.5925401 120.755115889 c 128,-1,42
 691.278830199 150.0625 691.278830199 150.0625 649.9375 150.0625 c 128,-1,43
183.46875 283.34375 m 128,-1,51
 224.8125 283.34375 224.8125 283.34375 254.125 312.65625 c 128,-1,52
 283.4375 341.96875 283.4375 341.96875 283.4375 383.3125 c 128,-1,53
 283.4375 424.65625 283.4375 424.65625 254.125 453.96875 c 128,-1,54
 224.8125 483.28125 224.8125 483.28125 183.46875 483.28125 c 128,-1,55
 142.125 483.28125 142.125 483.28125 112.8125 453.96875 c 128,-1,56
 83.5 424.65625 83.5 424.65625 83.5 383.3125 c 128,-1,57
 83.5 341.96875 83.5 341.96875 112.8125 312.65625 c 128,-1,50
 142.125 283.34375 142.125 283.34375 183.46875 283.34375 c 128,-1,51
816.53125 549.90625 m 128,-1,59
 857.875 549.90625 857.875 549.90625 887.1875 579.21875 c 128,-1,60
 916.5 608.53125 916.5 608.53125 916.5 649.875 c 128,-1,61
 916.5 691.21875 916.5 691.21875 887.1875 720.53125 c 128,-1,62
 857.875 749.84375 857.875 749.84375 816.53125 749.84375 c 128,-1,63
 775.1875 749.84375 775.1875 749.84375 745.875 720.53125 c 128,-1,64
 716.5625 691.21875 716.5625 691.21875 716.5625 649.875 c 128,-1,65
 716.5625 608.53125 716.5625 608.53125 745.875 579.21875 c 128,-1,58
 775.1875 549.90625 775.1875 549.90625 816.53125 549.90625 c 128,-1,59
EndSplineSet
Validated: 524289
EndChar

StartChar: group
Encoding: 10 59401 10
Width: 1000
Flags: W
LayerCount: 2
Fore
SplineSet
500 749.84375 m 128,-1,1
 608.625648718 749.84375 608.625648718 749.84375 700.731933013 696.340983654 c 128,-1,2
 792.838217308 642.838217308 792.838217308 642.838217308 846.340983654 550.731933013 c 128,-1,3
 899.84375 458.625648718 899.84375 458.625648718 899.84375 350 c 128,-1,4
 899.84375 241.374351282 899.84375 241.374351282 846.340983654 149.268066987 c 128,-1,5
 792.838217308 57.1617826923 792.838217308 57.1617826923 700.731933013 3.65901634616 c 128,-1,6
 608.625648718 -49.84375 608.625648718 -49.84375 500 -49.84375 c 128,-1,7
 391.374351282 -49.84375 391.374351282 -49.84375 299.268066987 3.65901634616 c 128,-1,8
 207.161782692 57.1617826923 207.161782692 57.1617826923 153.659016346 149.268066987 c 128,-1,9
 100.15625 241.374351282 100.15625 241.374351282 100.15625 350 c 128,-1,10
 100.15625 458.625648718 100.15625 458.625648718 153.659016346 550.731933013 c 128,-1,11
 207.161782692 642.838217308 207.161782692 642.838217308 299.268066987 696.340983654 c 128,-1,0
 391.374351282 749.84375 391.374351282 749.84375 500 749.84375 c 128,-1,1
500 716.53125 m 128,-1,13
 400.594685348 716.53125 400.594685348 716.53125 316.140858837 667.41453338 c 128,-1,14
 231.687032326 618.297816761 231.687032326 618.297816761 182.577891163 533.845883286 c 128,-1,15
 133.46875 449.393949812 133.46875 449.393949812 133.46875 350 c 0,16,17
 133.46875 216.302192029 133.46875 216.302192029 219.96875 113.90625 c 1,18,19
 293.485718759 146.074304014 293.485718759 146.074304014 395.84375 176.3125 c 0,20,21
 398.28571378 177.084591489 398.28571378 177.084591489 399.113095112 178.18513042 c 128,-1,22
 399.940476443 179.28566935 399.940476443 179.28566935 400.376488222 183.22111958 c 128,-1,23
 400.8125 187.15656981 400.8125 187.15656981 400.8125 196.84375 c 0,24,25
 400.8125 226.690448113 400.8125 226.690448113 393.5 242.28125 c 0,26,27
 379.922136613 271.048960556 379.922136613 271.048960556 375.71875 303.03125 c 1,28,29
 358.068117241 323.465251771 358.068117241 323.465251771 349.5 366.34375 c 0,30,31
 342.766868118 399.90841243 342.766868118 399.90841243 350.28125 419.46875 c 0,32,33
 351.23828125 421.765625 351.23828125 421.765625 351.53125 422.9375 c 0,34,35
 355.606470456 442.464598021 355.606470456 442.464598021 345.5625 497.53125 c 0,36,37
 344.382789192 509.386004282 344.382789192 509.386004282 345.196759259 524.201388889 c 128,-1,38
 346.010729327 539.016773496 346.010729327 539.016773496 353.678240741 559.350694444 c 128,-1,39
 361.345752155 579.684615393 361.345752155 579.684615393 374.3125 596.25 c 0,40,41
 412.791725986 645.478760647 412.791725986 645.478760647 485.875 650.09375 c 1,42,-1
 519.5625 650.125 l 1,43,44
 593.671263156 645.486130856 593.671263156 645.486130856 632.15625 596.25 c 0,45,46
 651.070215185 572.11399729 651.070215185 572.11399729 657.686849601 544.050554405 c 128,-1,47
 664.303484018 515.98711152 664.303484018 515.98711152 660.9375 497.53125 c 0,48,49
 650.928757333 442.012165679 650.928757333 442.012165679 655.03125 422.8125 c 0,50,51
 655.330439815 421.833333333 655.330439815 421.833333333 656.25 419.46875 c 0,52,53
 663.789825307 400.047987845 663.789825307 400.047987845 657.0625 366.34375 c 0,54,55
 648.465589548 323.510685151 648.465589548 323.510685151 630.84375 303.03125 c 1,56,57
 626.601105091 271.097363588 626.601105091 271.097363588 613.0625 242.28125 c 0,58,59
 600.34375 215.26181592 600.34375 215.26181592 600.34375 197.53125 c 0,60,61
 600.34375 183.874226888 600.34375 183.874226888 601.183288838 180.957703947 c 128,-1,62
 602.022827675 178.041181006 602.022827675 178.041181006 605.625 176.90625 c 0,63,64
 708.930283271 146.362240602 708.930283271 146.362240602 781.8125 115.9375 c 1,65,66
 866.53125 217.730182476 866.53125 217.730182476 866.53125 350 c 0,67,68
 866.53125 449.405314652 866.53125 449.405314652 817.41453338 533.859141163 c 128,-1,69
 768.297816761 618.312967674 768.297816761 618.312967674 683.845883286 667.422108837 c 128,-1,12
 599.393949812 716.53125 599.393949812 716.53125 500 716.53125 c 128,-1,13
244.09375 87.9375 m 1,70,71
 294.700942747 38.4947060177 294.700942747 38.4947060177 360.724295016 10.9661030089 c 128,-1,72
 426.747647286 -16.5625 426.747647286 -16.5625 500 -16.5625 c 0,73,74
 573.950299202 -16.5625 573.950299202 -16.5625 640.493567737 11.4569734022 c 128,-1,75
 707.036836272 39.4764468044 707.036836272 39.4764468044 757.75 89.6875 c 1,76,77
 681.138357906 119.789239689 681.138357906 119.789239689 595.875 145 c 0,78,79
 582.504776066 149.210752343 582.504776066 149.210752343 575.688694016 159.116056141 c 128,-1,80
 568.872611967 169.02135994 568.872611967 169.02135994 567.936305984 176.550610525 c 128,-1,81
 567 184.079861111 567 184.079861111 567 197.5 c 0,82,83
 567 222.669491525 567 222.669491525 582.875 256.4375 c 0,84,85
 595.824286365 283.970448679 595.824286365 283.970448679 598.25 311.9375 c 0,86,87
 598.831409863 318.575262597 598.831409863 318.575262597 603.875 323.03125 c 0,88,89
 616.586087964 334.142929545 616.586087964 334.142929545 624.34375 372.8125 c 0,90,91
 629.174641966 397.061068117 629.174641966 397.061068117 625.125 407.375 c 0,92,93
 623.637257067 411.232111307 623.637257067 411.232111307 622.8125 414.15625 c 0,94,95
 616.289176208 437.956189149 616.289176208 437.956189149 628.125 503.4375 c 0,96,97
 630.279627848 515.224581758 630.279627848 515.224581758 625.321533985 536.237158395 c 128,-1,98
 620.363440122 557.249735032 620.363440122 557.249735032 605.9375 575.6875 c 0,99,100
 576.588083688 613.139804925 576.588083688 613.139804925 518.53125 616.8125 c 2,101,-1
 486.9375 616.78125 l 2,102,103
 429.850251433 613.121201591 429.850251433 613.121201591 400.5625 575.6875 c 0,104,105
 386.153329467 557.244593416 386.153329467 557.244593416 381.17312516 536.224007104 c 128,-1,106
 376.192920852 515.203420792 376.192920852 515.203420792 378.34375 503.46875 c 0,107,108
 390.21520754 438.137438506 390.21520754 438.137438506 383.65625 414.15625 c 0,109,110
 382.953663793 411.580100575 382.953663793 411.580100575 381.34375 407.40625 c 0,111,112
 377.324067125 396.942313627 377.324067125 396.942313627 382.15625 372.84375 c 0,113,114
 389.920557879 334.141052053 389.920557879 334.141052053 402.59375 323.0625 c 0,115,116
 407.681527191 318.659615892 407.681527191 318.659615892 408.21875 311.96875 c 0,117,118
 410.693751528 284.02979044 410.693751528 284.02979044 423.65625 256.46875 c 0,119,120
 434.125 234.1703125 434.125 234.1703125 434.125 196.84375 c 0,121,122
 434.125 183.423611111 434.125 183.423611111 433.198827198 175.89740048 c 128,-1,123
 432.272654396 168.371189849 432.272654396 168.371189849 425.530339469 158.488016187 c 128,-1,124
 418.788024541 148.604842525 418.788024541 148.604842525 405.5625 144.4375 c 0,125,126
 322.581253864 119.959878762 322.581253864 119.959878762 244.09375 87.9375 c 1,70,71
EndSplineSet
Validated: 524321
EndChar

StartChar: wrench
Encoding: 11 59402 11
Width: 951
Flags: W
LayerCount: 2
Fore
SplineSet
951 461 m 2
 962 451 962 451 962 436.5 c 0
 962 422 962 422 951 411 c 2
 884 343 l 2
 874 332 874 332 859.5 332 c 0
 845 332 845 332 834 343 c 2
 819 359 l 2
 811 366 811 366 807.5 378 c 0
 804 390 804 390 809 396 c 0
 818 402 818 402 814 416.5 c 0
 810 431 810 431 795 446 c 0
 774 469 774 469 747.5 472.5 c 0
 721 476 721 476 711 463 c 0
 685 436 l 1
 593 528 l 1
 608 543 l 1
 611 546 611 546 619 555 c 0
 632 570 632 570 631.5 583.5 c 0
 631 597 631 597 624.5 606.5 c 0
 618 616 l 1
 582 652 582 652 533 671.5 c 0
 484 691 484 691 453.5 693 c 0
 423 695 l 1
 421 724 l 1
 486 741 486 741 543 741 c 0
 600 741 600 741 632 734 c 0
 664 727 664 727 698.5 706 c 0
 733 685 733 685 740.5 678 c 0
 748 671 748 671 768 651 c 2
 834 585 l 2
 841 578 841 578 843 544.5 c 0
 845 511 845 511 858 496 c 0
 874 480 874 480 895 480 c 1
 905 488 905 488 917.5 486.5 c 0
 930 485 930 485 938 476 c 2
 951 461 l 2
545 293 m 1
 765 95 l 2
 788 72 788 72 787.5 39 c 0
 787 6 787 6 764 -19 c 0
 739 -42 739 -42 706 -42 c 0
 673 -42 673 -42 650 -17 c 2
 449 195 l 1
 261 -31 l 2
 248 -45 248 -45 228 -45 c 0
 208 -45 208 -45 194 -31 c 2
 145 19 l 2
 131 32 131 32 131 52 c 0
 131 72 131 72 145 86 c 2
 360 286 l 1
 256 386 l 2
 231 411 231 411 213.5 419 c 0
 196 427 196 427 175 420 c 0
 123 401 123 401 73 434 c 0
 38 456 38 456 20 492 c 0
 2 528 2 528 1 553 c 0
 0 578 l 1
 6 588 l 1
 76 543 76 543 85 538 c 0
 93 532 93 532 104.5 528.5 c 0
 116 525 116 525 135 532.5 c 0
 154 540 154 540 170 565 c 0
 186 589 186 589 186.5 611.5 c 0
 187 634 187 634 180 644.5 c 0
 173 655 173 655 166 659 c 0
 88 710 l 1
 94 720 l 1
 103 725 103 725 118.5 730.5 c 0
 134 736 134 736 175.5 736 c 0
 217 736 217 736 251 716 c 0
 251 715 251 715 256 711.5 c 0
 261 708 261 708 268 703.5 c 0
 275 699 275 699 278 696 c 0
 334 646 334 646 318 564 c 0
 312 538 312 538 318 523.5 c 0
 324 509 324 509 346 484 c 2
 450 380 l 1
 574 506 l 1
 664 414 l 1
 545 293 l 1
736 9 m 0
 749 20 749 20 749 38.5 c 0
 749 57 749 57 736 69 c 0
 723 81 723 81 706 81 c 0
 689 81 689 81 676 69 c 0
 665 57 665 57 665 39 c 0
 665 21 665 21 676 10 c 0
 690 -2 690 -2 706.5 -3 c 0
 723 -4 723 -4 736 9 c 0
EndSplineSet
Validated: 524321
EndChar

StartChar: article
Encoding: 12 59403 12
Width: 696
Flags: W
LayerCount: 2
Fore
SplineSet
666.59375 516.59375 m 1,0,-1
 916.5 516.59375 l 1,1,-1
 916.5 66.78125 l 1,2,-1
 833.1875 66.78125 l 1,3,-1
 833.1875 -66.46875 l 1,4,-1
 812.40625 -66.46875 l 1,5,-1
 679.125 66.78125 l 1,6,-1
 333.40625 66.78125 l 1,7,-1
 333.40625 316.6875 l 1,8,-1
 83.5 316.6875 l 1,9,-1
 83.5 766.5 l 1,10,-1
 666.59375 766.5 l 1,11,-1
 666.59375 516.59375 l 1,0,-1
116.8125 350 m 1,12,-1
 333.40625 350 l 1,13,-1
 333.40625 516.59375 l 1,14,-1
 633.28125 516.59375 l 1,15,-1
 633.28125 733.1875 l 1,16,-1
 116.8125 733.1875 l 1,17,-1
 116.8125 350 l 1,12,-1
883.1875 100.09375 m 1,18,-1
 883.15625 483.28125 l 1,19,-1
 366.6875 483.28125 l 1,20,-1
 366.6875 100.09375 l 1,21,-1
 692.90625 100.09375 l 1,22,-1
 799.875 -6.84375 l 1,23,-1
 799.875 100.09375 l 1,24,-1
 883.1875 100.09375 l 1,18,-1
EndSplineSet
Validated: 524289
EndChar

StartChar: docs
Encoding: 13 59404 13
Width: 1001
Flags: W
LayerCount: 2
Fore
SplineSet
899.84375 724.84375 m 1,0,-1
 899.84375 508.25 l 1,1,-1
 866.53125 508.25 l 1,2,-1
 866.53125 -24.875 l 1,3,-1
 133.5 -24.875 l 1,4,-1
 133.5 508.25 l 1,5,-1
 100.15625 508.25 l 1,6,-1
 100.15625 724.84375 l 1,7,-1
 899.84375 724.84375 l 1,0,-1
833.21875 8.46875 m 1,8,-1
 833.21875 508.28125 l 1,9,-1
 166.84375 508.28125 l 1,10,-1
 166.84375 8.46875 l 1,11,-1
 833.21875 8.46875 l 1,8,-1
866.53125 541.59375 m 1,12,-1
 866.53125 691.53125 l 1,13,-1
 133.5 691.53125 l 1,14,-1
 133.5 541.59375 l 1,15,-1
 866.53125 541.59375 l 1,12,-1
379.5 291.53125 m 2,16,17
 353.654204333 291.53125 353.654204333 291.53125 335.405227166 309.274540234 c 128,-1,18
 317.15625 327.017830468 317.15625 327.017830468 317.15625 352.125 c 2,19,-1
 317.15625 364.1875 l 2,20,21
 317.15625 389.289422286 317.15625 389.289422286 335.414247584 407.035336143 c 128,-1,22
 353.672245168 424.78125 353.672245168 424.78125 379.5 424.78125 c 2,23,-1
 621.34375 424.78125 l 2,24,25
 647.174485661 424.78125 647.174485661 424.78125 665.44661783 407.033888408 c 128,-1,26
 683.71875 389.286526817 683.71875 389.286526817 683.71875 364.1875 c 2,27,-1
 683.71875 352.125 l 2,28,29
 683.71875 327.025973183 683.71875 327.025973183 665.44661783 309.278611592 c 128,-1,30
 647.174485661 291.53125 647.174485661 291.53125 621.34375 291.53125 c 2,31,-1
 379.5 291.53125 l 2,16,17
350.46875 364.21875 m 2,32,-1
 350.46875 352.15625 l 2,33,34
 350.46875 344.76245915 350.46875 344.76245915 354.35229753 338.477073121 c 128,-1,35
 358.23584506 332.191687092 358.23584506 332.191687092 364.918535803 328.533343546 c 128,-1,36
 371.601226547 324.875 371.601226547 324.875 379.46875 324.875 c 2,37,-1
 621.3125 324.875 l 2,38,39
 633.317456982 324.875 633.317456982 324.875 641.830603491 332.869514998 c 128,-1,40
 650.34375 340.864029996 650.34375 340.864029996 650.34375 352.15625 c 2,41,-1
 650.34375 364.21875 l 2,42,43
 650.34375 375.492924638 650.34375 375.492924638 641.827732831 383.496462319 c 128,-1,44
 633.311715662 391.5 633.311715662 391.5 621.3125 391.5 c 2,45,-1
 379.46875 391.5 l 2,46,47
 367.466772152 391.5 367.466772152 391.5 358.967761076 383.50688244 c 128,-1,48
 350.46875 375.513764881 350.46875 375.513764881 350.46875 364.21875 c 2,32,-1
EndSplineSet
Validated: 524289
EndChar

StartChar: infinity
Encoding: 14 59405 14
Width: 1000
Flags: W
LayerCount: 2
Fore
SplineSet
425.25 450.53125 m 1,0,1
 499.699587042 413.838488454 499.699587042 413.838488454 544.896668521 342.836234311 c 128,-1,2
 590.09375 271.833980168 590.09375 271.833980168 590.09375 186.09375 c 0,3,4
 590.09375 63.890625 590.09375 63.890625 503.6796875 -22.5234375 c 128,-1,5
 417.265625 -108.9375 417.265625 -108.9375 295.0625 -108.9375 c 128,-1,6
 172.859375 -108.9375 172.859375 -108.9375 86.4453125 -22.5234375 c 128,-1,7
 0.03125 63.890625 0.03125 63.890625 0.03125 186.09375 c 0,8,9
 0.03125 271.546942696 0.03125 271.546942696 44.9607413792 342.384192508 c 128,-1,10
 89.8902327585 413.22144232 89.8902327585 413.22144232 163.96875 450.09375 c 1,11,12
 81.96875 647.340544872 81.96875 647.340544872 81.96875 682.21875 c 2,13,-1
 81.96875 808.9375 l 1,14,-1
 508.125 808.9375 l 1,15,-1
 508.125 682.21875 l 2,16,17
 508.125 647.667400235 508.125 647.667400235 425.25 450.53125 c 1,0,1
114.71875 682.25 m 2,18,19
 114.75 654.113818807 114.75 654.113818807 194.125 463.03125 c 1,20,21
 243.735309103 481.125 243.735309103 481.125 295.0625 481.125 c 0,22,23
 345.844355956 481.125 345.844355956 481.125 395.0625 463.375 c 1,24,25
 475.34375 653.99600234 475.34375 653.99600234 475.34375 682.25 c 2,26,-1
 475.34375 776.1875 l 1,27,-1
 310.84375 776.1875 l 1,28,-1
 310.84375 551.90625 l 1,29,-1
 278.0625 551.90625 l 1,30,-1
 278.0625 776.1875 l 1,31,-1
 114.71875 776.1875 l 1,32,-1
 114.71875 682.25 l 2,18,19
295.03125 -76.15625 m 128,-1,34
 403.4765625 -76.15625 403.4765625 -76.15625 480.37890625 0.74609375 c 128,-1,35
 557.28125 77.6484375 557.28125 77.6484375 557.28125 186.09375 c 128,-1,36
 557.28125 294.5390625 557.28125 294.5390625 480.37890625 371.44140625 c 128,-1,37
 403.4765625 448.34375 403.4765625 448.34375 295.03125 448.34375 c 128,-1,38
 186.5859375 448.34375 186.5859375 448.34375 109.68359375 371.44140625 c 128,-1,39
 32.78125 294.5390625 32.78125 294.5390625 32.78125 186.09375 c 128,-1,40
 32.78125 77.6484375 32.78125 77.6484375 109.68359375 0.74609375 c 128,-1,33
 186.5859375 -76.15625 186.5859375 -76.15625 295.03125 -76.15625 c 128,-1,34
295.03125 382.78125 m 128,-1,42
 376.518041113 382.78125 376.518041113 382.78125 434.118395557 325.174573489 c 128,-1,43
 491.71875 267.567896979 491.71875 267.567896979 491.71875 186.09375 c 128,-1,44
 491.71875 104.619603021 491.71875 104.619603021 434.118395557 47.0129265105 c 128,-1,45
 376.518041113 -10.59375 376.518041113 -10.59375 295.03125 -10.59375 c 128,-1,46
 213.5625 -10.59375 213.5625 -10.59375 155.953125 47.015625 c 128,-1,47
 98.34375 104.625 98.34375 104.625 98.34375 186.09375 c 128,-1,48
 98.34375 267.5625 98.34375 267.5625 155.953125 325.171875 c 128,-1,41
 213.5625 382.78125 213.5625 382.78125 295.03125 382.78125 c 128,-1,42
295.03125 22.1875 m 128,-1,50
 362.830544428 22.1875 362.830544428 22.1875 410.884022214 70.247303109 c 128,-1,51
 458.9375 118.307106218 458.9375 118.307106218 458.9375 186.09375 c 128,-1,52
 458.9375 253.880393782 458.9375 253.880393782 410.884022214 301.940196891 c 128,-1,53
 362.830544428 350 362.830544428 350 295.03125 350 c 128,-1,54
 227.25 350 227.25 350 179.1875 301.9375 c 128,-1,55
 131.125 253.875 131.125 253.875 131.125 186.09375 c 128,-1,56
 131.125 118.3125 131.125 118.3125 179.1875 70.25 c 128,-1,49
 227.25 22.1875 227.25 22.1875 295.03125 22.1875 c 128,-1,50
EndSplineSet
Validated: 524289
EndChar

StartChar: user
Encoding: 15 59406 15
Width: 940
Flags: W
LayerCount: 2
Fore
SplineSet
736 128 m 0
 940 56 940 56 940 6 c 2
 940 -100 l 1
 0 -100 l 1
 0 6 l 2
 0 56 0 56 204 128 c 0
 298 162 298 162 332 197 c 0
 366 232 366 232 366 292 c 0
 366 314 366 314 344 341 c 0
 322 368 322 368 312 414 c 0
 310 426 310 426 303 432 c 0
 296 438 296 438 289 440 c 0
 282 442 282 442 275 457 c 0
 268 472 268 472 266 500 c 0
 266 516 266 516 271 526 c 0
 276 536 276 536 280 538 c 2
 284 542 l 1
 276 592 276 592 272 630 c 0
 268 684 268 684 313 742 c 0
 358 800 358 800 470 800 c 0
 582 800 582 800 628 742 c 0
 674 684 674 684 668 630 c 2
 656 542 l 1
 674 534 674 534 674 500 c 0
 672 472 672 472 665 457 c 0
 658 442 658 442 651 440 c 0
 644 438 644 438 637 432 c 0
 630 426 630 426 628 414 c 0
 620 366 620 366 597 340 c 0
 574 314 574 314 574 292 c 0
 574 232 574 232 609 197 c 0
 644 162 644 162 736 128 c 0
EndSplineSet
Validated: 33
EndChar

StartChar: key
Encoding: 16 59407 16
Width: 780
Flags: W
LayerCount: 2
Fore
SplineSet
716.59375 366.65625 m 1,0,-1
 833.1875 366.625 l 1,1,-1
 833.1875 -83.1875 l 1,2,-1
 166.78125 -83.1875 l 1,3,-1
 166.78125 366.625 l 1,4,-1
 283.40625 366.625 l 1,5,-1
 283.40625 566.5625 l 2,6,7
 283.40625 601.85379501 283.40625 601.85379501 294.339620445 634.912568126 c 128,-1,8
 305.272990891 667.971341242 305.272990891 667.971341242 325.317879555 694.593181874 c 128,-1,9
 345.362768219 721.215022505 345.362768219 721.215022505 371.989620445 741.255568126 c 128,-1,10
 398.616472672 761.296113747 398.616472672 761.296113747 431.677879555 772.226181874 c 128,-1,11
 464.739286437 783.15625 464.739286437 783.15625 500.03125 783.15625 c 0,12,13
 558.853373804 783.15625 558.853373804 783.15625 608.741989284 754.166311191 c 128,-1,14
 658.630604765 725.176372382 658.630604765 725.176372382 687.612177382 675.281605476 c 128,-1,15
 716.59375 625.386838569 716.59375 625.386838569 716.59375 566.5625 c 2,16,-1
 716.59375 366.65625 l 1,0,-1
316.75 566.59375 m 1,17,-1
 316.71875 366.65625 l 1,18,-1
 683.25 366.65625 l 1,19,-1
 683.25 566.59375 l 2,20,21
 683.25 642.37555659 683.25 642.37555659 629.534879433 696.109653295 c 128,-1,22
 575.819758866 749.84375 575.819758866 749.84375 500.03125 749.84375 c 128,-1,23
 424.231400474 749.84375 424.231400474 749.84375 370.490700237 696.115700587 c 128,-1,24
 316.75 642.387651174 316.75 642.387651174 316.75 566.59375 c 1,17,-1
799.875 -49.84375 m 1,25,-1
 799.875 333.34375 l 1,26,-1
 200.125 333.34375 l 1,27,-1
 200.125 -49.84375 l 1,28,-1
 799.875 -49.84375 l 1,25,-1
EndSplineSet
Validated: 524289
EndChar

StartChar: money
Encoding: 17 59408 17
Width: 654
Flags: W
LayerCount: 2
Fore
SplineSet
238 378 m 0
 253 397 253 397 303 402 c 1
 303 317 l 1
 260 321 260 321 244 328 c 0
 228 335 228 335 228 356 c 0
 228 369 228 369 238 378 c 0
345 137 m 1
 345 228 l 1
 392 224 392 224 407.5 218 c 0
 423 212 423 212 423 193 c 0
 423 147 423 147 345 137 c 1
415 381 m 0
 437 368 437 368 444 361 c 0
 451 354 451 354 451 343 c 1
 459 339 l 1
 504 429 l 1
 498 434 l 1
 488 427 488 427 484 427 c 0
 476 427 476 427 471 431 c 0
 385.560272212 463.21497933 385.560272212 463.21497933 357.625323939 465.491483101 c 0
 351.385319665 466 351.385319665 466 345 466 c 1
 345 483 l 2
 345 497 345 497 365 502 c 1
 365 511 l 1
 286 511 l 1
 286 502 l 1
 303 497 303 497 303 483 c 2
 303 468 l 1
 231 465 231 465 190.5 432.5 c 0
 150 400 150 400 150 346 c 0
 150 291 150 291 183.5 267.5 c 0
 217 244 217 244 303 236 c 1
 303 139 l 1
 248 145 248 145 217 163.5 c 0
 186 182 186 182 186 203 c 1
 179 207 l 1
 138 113 l 1
 144 109 l 1
 152 114 152 114 156 114 c 0
 163 114 163 114 165 112 c 0
 239 75 239 75 303 72 c 1
 303 53 l 2
 303 38 303 38 286 33 c 1
 286 24 l 1
 365 24 l 1
 365 33 l 1
 345 38 345 38 345 53 c 2
 345 72 l 1
 417 76 417 76 460.5 110 c 0
 504 144 504 144 504 198 c 0
 504 299 504 299 355 313 c 1
 345 313 l 1
 345 401 l 1
 381 398 381 398 415 381 c 0
456 562 m 1
 545 524 545 524 599.5 443 c 0
 654 362 654 362 654 262 c 0
 654 126 654 126 558.5 30 c 0
 463 -66 463 -66 328 -66 c 0
 192 -66 192 -66 96 30 c 0
 0 126 0 126 0 262 c 0
 0 362 0 362 54.5 443 c 0
 109 524 109 524 198 562 c 1
 116 741 l 1
 116 766 116 766 144 766 c 2
 510 766 l 2
 538 766 538 766 538 741 c 1
 456 562 l 1
EndSplineSet
Validated: 524289
EndChar

StartChar: wallet
Encoding: 18 59409 18
Width: 1000
Flags: W
LayerCount: 2
Fore
SplineSet
502.09375 501.375 m 128,-1,1
 481.3984375 501.375 481.3984375 501.375 466.76171875 516.01171875 c 128,-1,2
 452.125 530.6484375 452.125 530.6484375 452.125 551.34375 c 0,3,4
 452.125 564.929086788 452.125 564.929086788 458.813320707 576.43279253 c 128,-1,5
 465.501641414 587.936498273 465.501641414 587.936498273 477.00959596 594.608874136 c 128,-1,6
 488.517550505 601.28125 488.517550505 601.28125 502.09375 601.28125 c 0,7,8
 522.797449449 601.28125 522.797449449 601.28125 537.429974724 586.66768696 c 128,-1,9
 552.0625 572.05412392 552.0625 572.05412392 552.0625 551.34375 c 128,-1,10
 552.0625 530.6484375 552.0625 530.6484375 537.42578125 516.01171875 c 128,-1,0
 522.7890625 501.375 522.7890625 501.375 502.09375 501.375 c 128,-1,1
536.03125 434.71875 m 1,11,-1
 536.03125 151.5 l 1,12,-1
 569.34375 151.5 l 1,13,-1
 569.34375 118.1875 l 1,14,-1
 436.0625 118.1875 l 1,15,-1
 436.0625 151.5 l 1,16,-1
 469.375 151.5 l 1,17,-1
 469.375 434.71875 l 1,18,-1
 436.0625 434.71875 l 1,19,-1
 436.0625 468.03125 l 1,20,-1
 536.03125 468.03125 l 1,21,-1
 536.03125 434.71875 l 1,11,-1
500 766.5 m 128,-1,23
 584.727611757 766.5 584.727611757 766.5 661.855643626 733.515915532 c 128,-1,24
 738.983675496 700.531831063 738.983675496 700.531831063 794.753731374 644.76582275 c 128,-1,25
 850.523787252 588.999814436 850.523787252 588.999814436 883.511893626 511.868454594 c 128,-1,26
 916.5 434.737094752 916.5 434.737094752 916.5 350 c 0,27,28
 916.5 236.844376138 916.5 236.844376138 860.75844026 140.898594035 c 128,-1,29
 805.01688052 44.9528119308 805.01688052 44.9528119308 709.074893073 -10.7735940346 c 128,-1,30
 613.132905627 -66.5 613.132905627 -66.5 500 -66.5 c 128,-1,31
 386.867094373 -66.5 386.867094373 -66.5 290.925106927 -10.7735940346 c 128,-1,32
 194.98311948 44.9528119308 194.98311948 44.9528119308 139.24155974 140.898594035 c 128,-1,33
 83.5 236.844376138 83.5 236.844376138 83.5 350 c 0,34,35
 83.5 434.727611757 83.5 434.727611757 116.484084468 511.855643626 c 128,-1,36
 149.468168937 588.983675496 149.468168937 588.983675496 205.23417725 644.753731374 c 128,-1,37
 261.000185564 700.523787252 261.000185564 700.523787252 338.131545406 733.511893626 c 128,-1,22
 415.262905248 766.5 415.262905248 766.5 500 766.5 c 128,-1,23
500 -33.1875 m 128,-1,39
 603.923931234 -33.1875 603.923931234 -33.1875 692.215357808 18.1604332781 c 128,-1,40
 780.506784383 69.5083665562 780.506784383 69.5083665562 831.847142192 157.797900055 c 128,-1,41
 883.1875 246.087433554 883.1875 246.087433554 883.1875 350 c 128,-1,42
 883.1875 453.910042345 883.1875 453.910042345 831.840197747 542.20146892 c 128,-1,43
 780.492895494 630.492895494 780.492895494 630.492895494 692.20146892 681.840197747 c 128,-1,44
 603.910042345 733.1875 603.910042345 733.1875 500 733.1875 c 128,-1,45
 396.076068766 733.1875 396.076068766 733.1875 307.784642192 681.839566722 c 128,-1,46
 219.493215617 630.491633444 219.493215617 630.491633444 168.152857808 542.202099945 c 128,-1,47
 116.8125 453.912566446 116.8125 453.912566446 116.8125 350 c 128,-1,48
 116.8125 246.089957655 116.8125 246.089957655 168.159802253 157.79853108 c 128,-1,49
 219.507104506 69.5071045059 219.507104506 69.5071045059 307.79853108 18.1598022529 c 128,-1,38
 396.089957655 -33.1875 396.089957655 -33.1875 500 -33.1875 c 128,-1,39
EndSplineSet
Validated: 524289
EndChar

StartChar: arrows-cw
Encoding: 19 59410 19
Width: 857
Flags: W
LayerCount: 2
Fore
SplineSet
0 -7 m 2
 0 243 l 2
 0 257 0 257 11 268 c 0
 22 279 22 279 36 279 c 2
 286 279 l 2
 300 279 300 279 311 268 c 0
 322 257 322 257 321 243 c 0
 320 229 320 229 311 218 c 2
 234 141 l 1
 274 104 274 104 324 84 c 0
 374 64 374 64 429 64 c 0
 503 64 503 64 568 101 c 0
 633 138 633 138 672 200 c 0
 678 210 678 210 701 266 c 0
 706 279 706 279 718 279 c 2
 825 279 l 2
 833 279 833 279 838 273 c 0
 843 267 843 267 843 261 c 0
 843 258 843 258 843 257 c 0
 807 107 807 107 693 14 c 0
 579 -79 579 -79 426 -79 c 0
 345 -79 345 -79 269 -48 c 0
 193 -17 193 -17 133 40 c 1
 61 -32 l 2
 50 -43 50 -43 36 -43 c 0
 22 -43 22 -43 11 -32 c 0
 0 -21 0 -21 0 -7 c 2
10 439 m 2
 10 443 l 1
 46 593 46 593 161 686 c 0
 276 779 276 779 429 779 c 0
 510 779 510 779 587 748 c 0
 664 717 664 717 724 660 c 1
 796 732 l 2
 807 743 807 743 821 743 c 0
 835 743 835 743 847 732 c 0
 859 721 859 721 857 707 c 2
 857 457 l 2
 857 443 857 443 847 432 c 0
 837 421 837 421 821 421 c 2
 571 421 l 2
 557 421 557 421 546 432 c 0
 535 443 535 443 536 457 c 0
 537 471 537 471 546 482 c 2
 623 559 l 1
 541 636 541 636 429 636 c 0
 354 636 354 636 289 599 c 0
 224 562 224 562 185 500 c 0
 179 490 179 490 156 434 c 0
 151 421 151 421 139 421 c 2
 28 421 l 2
 21 421 21 421 15 427 c 0
 9 433 9 433 10 439 c 2
EndSplineSet
Validated: 513
EndChar

StartChar: th-list
Encoding: 20 59411 20
Width: 1000
Flags: W
LayerCount: 2
Fore
SplineSet
0 -150 m 1
 0 100 l 1
 250 100 l 1
 250 -150 l 1
 0 -150 l 1
0 225 m 1
 0 475 l 1
 250 475 l 1
 250 225 l 1
 0 225 l 1
0 600 m 1
 0 850 l 1
 250 850 l 1
 250 600 l 1
 0 600 l 1
391 -150 m 1
 391 100 l 1
 1000 100 l 1
 1000 -150 l 1
 391 -150 l 1
391 225 m 1
 391 475 l 1
 1000 475 l 1
 1000 225 l 1
 391 225 l 1
391 600 m 1
 391 850 l 1
 1000 850 l 1
 1000 600 l 1
 391 600 l 1
EndSplineSet
Validated: 513
EndChar

StartChar: left-open-big
Encoding: 21 59412 21
Width: 465
Flags: W
LayerCount: 2
Fore
SplineSet
452 -20 m 2
 478 -46 478 -46 452 -68 c 0
 426 -94 426 -94 404 -68 c 2
 12 326 l 2
 -12 350 -12 350 12 376 c 2
 404 770 l 2
 426 796 426 796 452 770 c 0
 478 748 478 748 452 722 c 2
 94 350 l 1
 452 -20 l 2
EndSplineSet
Validated: 545
EndChar

StartChar: right-open-big
Encoding: 22 59413 22
Width: 465
Flags: W
LayerCount: 2
Fore
SplineSet
13 -20 m 2
 371 350 l 1
 13 722 l 2
 -13 748 -13 748 13 770 c 0
 39 796 39 796 61 770 c 2
 453 376 l 2
 477 350 477 350 453 326 c 2
 61 -68 l 2
 39 -94 39 -94 13 -68 c 0
 -13 -46 -13 -46 13 -20 c 2
EndSplineSet
Validated: 545
EndChar

StartChar: down-open-big
Encoding: 23 59414 23
Width: 866
Flags: W
LayerCount: 2
Fore
SplineSet
63 570 m 2
 433 214 l 1
 805 570 l 2
 827 596 827 596 853 570 c 0
 879 548 879 548 853 522 c 2
 457 130 l 2
 435 108 435 108 409 130 c 2
 13 522 l 2
 -13 548 -13 548 13 570 c 0
 37 594 37 594 63 570 c 2
EndSplineSet
Validated: 545
EndChar

StartChar: up-open-big
Encoding: 24 59415 24
Width: 864
Flags: W
LayerCount: 2
Fore
SplineSet
804 130 m 2
 432 488 l 1
 62 130 l 2
 36 108 36 108 12 130 c 0
 -12 154 -12 154 12 180 c 2
 408 570 l 2
 434 596 434 596 456 570 c 2
 852 180 l 2
 876 154 876 154 852 130 c 0
 826 108 826 108 804 130 c 2
EndSplineSet
Validated: 545
EndChar

StartChar: down-open-mini
Encoding: 25 59416 25
Width: 466
Flags: W
LayerCount: 2
Fore
SplineSet
405 470 m 1
 427 496 427 496 453 470 c 0
 479 448 479 448 453 422 c 2
 257 230 l 2
 235 208 235 208 209 230 c 2
 13 422 l 2
 -13 448 -13 448 13 470 c 0
 37 494 37 494 63 470 c 2
 233 314 l 1
 405 470 l 1
EndSplineSet
Validated: 545
EndChar

StartChar: up-open-mini
Encoding: 26 59417 26
Width: 464
Flags: W
LayerCount: 2
Fore
SplineSet
62 230 m 2
 36 208 36 208 12 230 c 0
 -12 254 -12 254 12 280 c 2
 208 470 l 2
 234 496 234 496 256 470 c 2
 452 280 l 2
 476 254 476 254 452 230 c 0
 428 208 428 208 402 230 c 2
 232 388 l 1
 62 230 l 2
EndSplineSet
Validated: 545
EndChar

StartChar: right-open-mini
Encoding: 27 59418 27
Width: 265
Flags: W
LayerCount: 2
Fore
SplineSet
13 180 m 2
 171 350 l 1
 13 522 l 2
 -13 548 -13 548 13 570 c 0
 39 596 39 596 61 570 c 2
 253 376 l 2
 277 350 277 350 253 326 c 2
 61 132 l 2
 39 106 39 106 13 132 c 0
 -13 154 -13 154 13 180 c 2
EndSplineSet
Validated: 545
EndChar

StartChar: left-open-mini
Encoding: 28 59419 28
Width: 265
Flags: W
LayerCount: 2
Fore
SplineSet
252 180 m 2
 278 154 278 154 252 132 c 0
 226 106 226 106 204 132 c 2
 12 326 l 2
 -12 350 -12 350 12 376 c 2
 204 570 l 2
 226 596 226 596 252 570 c 0
 278 548 278 548 252 522 c 2
 96 350 l 1
 252 180 l 2
EndSplineSet
Validated: 545
EndChar

StartChar: rss
Encoding: 29 59420 29
Width: 760
Flags: W
LayerCount: 2
Fore
SplineSet
0 730 m 1
 314 730 314 730 537 507 c 0
 760 284 760 284 760 -30 c 1
 642 -30 l 1
 642 236 642 236 454 423 c 0
 266 610 266 610 0 610 c 1
 0 730 l 1
0 492 m 1
 218 492 218 492 371 339 c 0
 524 186 524 186 524 -30 c 1
 406 -30 l 1
 406 136 406 136 287 255 c 0
 168 374 168 374 0 374 c 1
 0 492 l 1
114 196 m 0
 160 196 160 196 194 163 c 0
 228 130 228 130 228 82 c 0
 228 36 228 36 194 3 c 0
 160 -30 160 -30 114 -30 c 0
 68 -30 68 -30 34 3 c 0
 0 36 0 36 0 82 c 0
 0 130 0 130 34 163 c 0
 68 196 68 196 114 196 c 0
EndSplineSet
Validated: 1
EndChar

StartChar: facebook
Encoding: 30 59421 30
Width: 1000
Flags: W
LayerCount: 2
Fore
SplineSet
0 -150 m 1
 0 850 l 1
 1000 850 l 1
 1000 -150 l 1
 0 -150 l 1
471 319 m 1
 563 319 l 1
 563 -33 l 1
 695 -33 l 1
 695 319 l 1
 824 319 l 1
 830 446 l 1
 695 446 l 1
 695 540 l 2
 695 571 695 571 707 583 c 0
 719 595 719 595 748 596 c 2
 828 596 l 1
 830 713 l 1
 771 719 771 719 742 719 c 2
 719 719 l 2
 688 719 688 719 662 709 c 0
 563 670 563 670 563 555 c 2
 563 446 l 1
 471 446 l 1
 471 319 l 1
EndSplineSet
Validated: 1
EndChar

StartChar: twitter
Encoding: 31 59422 31
Width: 749
Flags: W
LayerCount: 2
Fore
SplineSet
749 -25 m 0
 749 -76 749 -76 712 -113 c 128
 675 -150 675 -150 623 -150 c 2
 375 -150 l 2
 219 -150 219 -150 110 -40 c 0
 0 70 0 70 0 224 c 2
 0 725 l 2
 0 778 0 778 37 814 c 0
 73 850 73 850 126 850 c 0
 178 850 178 850 214 813 c 0
 251 777 251 777 251 725 c 2
 251 544 l 1
 604 544 l 2
 652 544 652 544 687 509 c 0
 721 475 721 475 721 428 c 0
 721 382 721 382 687 346 c 0
 653 312 653 312 605 312 c 2
 251 312 l 1
 251 224 l 2
 251 172 251 172 287 136 c 128
 323 100 323 100 375 100 c 2
 623 100 l 2
 675 100 675 100 712 63 c 128
 749 26 749 26 749 -25 c 1024
EndSplineSet
Validated: 3
EndChar

StartChar: twitter-bird
Encoding: 32 59423 32
Width: 1231
Flags: W
LayerCount: 2
Fore
SplineSet
1231 732 m 1
 1180 655 1180 655 1105 601 c 1
 1106 587 1106 587 1106 569 c 0
 1106 467 1106 467 1076 366 c 0
 1047 264 1047 264 986 171 c 0
 925 79 925 79 841 7 c 128
 757 -65 757 -65 640 -107 c 0
 522 -150 522 -150 387 -150 c 0
 177 -150 177 -150 0 -37 c 1
 31 -40 31 -40 60 -40 c 0
 236 -40 236 -40 374 68 c 1
 292 70 292 70 227 119 c 0
 163 168 163 168 138 244 c 1
 162 239 162 239 186 239 c 0
 220 239 220 239 252 248 c 1
 165 265 165 265 107 335 c 0
 50 404 50 404 50 495 c 2
 50 499 l 1
 103 469 103 469 164 467 c 1
 112 501 112 501 82 557 c 0
 52 612 52 612 52 677 c 0
 52 745 52 745 86 804 c 1
 181 687 181 687 316 618 c 0
 451 548 451 548 606 540 c 1
 600 568 600 568 600 598 c 0
 600 702 600 702 674 776 c 128
 748 850 748 850 852 850 c 0
 962 850 962 850 1037 770 c 1
 1122 787 1122 787 1197 832 c 1
 1168 741 1168 741 1086 692 c 1
 1162 701 1162 701 1231 731 c 1
 1231 732 l 1
EndSplineSet
Validated: 517
EndChar

StartChar: googleplus
Encoding: 33 59424 33
Width: 1000
Flags: W
LayerCount: 2
Fore
SplineSet
0 -150 m 1
 0 -25 l 1
 51 34 51 34 143 51 c 0
 225 63 225 63 248 63 c 0
 266 63 266 63 283 61 c 1
 297 49 297 49 346 16 c 0
 395 -17 395 -17 418 -39 c 0
 473 -86 473 -86 473 -134 c 0
 473 -144 473 -144 471 -150 c 1
 0 -150 l 1
0 57 m 1
 0 311 l 1
 90 245 90 245 203 260 c 1
 176 192 176 192 205 145 c 0
 219 124 219 124 234 102 c 1
 184 102 l 1
 53 98 53 98 0 57 c 1
0 674 m 1
 0 850 l 1
 1000 850 l 1
 1000 579 l 1
 816 579 l 1
 816 764 l 1
 736 764 l 1
 736 579 l 1
 551 579 l 1
 551 502 l 1
 736 502 l 1
 736 315 l 1
 816 315 l 1
 816 502 l 1
 1000 502 l 1
 1000 -150 l 1
 557 -150 l 1
 576 -78 576 -78 551 -19 c 0
 525 38 525 38 467 88 c 0
 439 112 439 112 365 170 c 0
 326 198 326 198 326 233 c 0
 328 264 328 264 367 305 c 1
 424 348 424 348 449 387 c 0
 484 440 484 440 484 512 c 0
 484 579 484 579 453 631 c 0
 434 663 434 663 397 698 c 1
 484 698 l 1
 566 764 l 1
 260 764 l 2
 186 762 186 762 115 740 c 0
 44 718 44 718 0 674 c 1
59 614 m 1
 72 672 72 672 129 700 c 0
 154 711 154 711 184 713 c 0
 229 713 229 713 264 686 c 0
 332 629 332 629 355 532 c 0
 375 454 375 454 357 403 c 0
 334 336 334 336 283 323 c 0
 205 301 205 301 150 338 c 1
 86 389 86 389 64 479 c 0
 49 547 49 547 59 614 c 1
EndSplineSet
Validated: 33
EndChar

StartChar: ok
Encoding: 34 59425 34
Width: 1000
Flags: W
LayerCount: 2
Fore
SplineSet
68 332 m 0
 68 354 68 354 83 370 c 2
 159 446 l 2
 175 462 175 462 197 462 c 0
 219 462 219 462 235 446 c 2
 399 281 l 1
 765 648 l 2
 781 664 781 664 803 664 c 0
 825 664 825 664 841 648 c 2
 917 572 l 2
 932 556 932 556 932 534 c 0
 932 512 932 512 917 496 c 2
 513 92 l 1
 437 16 l 2
 421 1 421 1 399 1 c 0
 377 1 377 1 361 16 c 2
 285 92 l 1
 83 294 l 2
 68 310 68 310 68 332 c 0
EndSplineSet
Validated: 1
EndChar

StartChar: ok-circled
Encoding: 35 59426 35
Width: 857
Flags: W
LayerCount: 2
Fore
SplineSet
0 350 m 1
 0 467 0 467 58 565 c 0
 116 663 116 663 213 721 c 0
 310 779 310 779 429 779 c 0
 548 779 548 779 644 721 c 0
 740 663 740 663 800 565 c 0
 860 467 860 467 857 350 c 0
 854 233 854 233 800 135 c 0
 746 37 746 37 644 -21 c 0
 542 -79 542 -79 429 -79 c 0
 316 -79 316 -79 213 -21 c 0
 110 37 110 37 58 135 c 0
 6 233 6 233 0 350 c 1
141 339 m 0
 141 324 141 324 151 314 c 2
 353 112 l 2
 363 102 363 102 378 102 c 0
 393 102 393 102 403 112 c 2
 706 415 l 2
 717 425 717 425 717 440 c 0
 717 456 717 456 706 466 c 2
 656 516 l 2
 645 527 645 527 631 527 c 0
 617 527 617 527 605 516 c 2
 378 289 l 1
 252 415 l 2
 241 426 241 426 227 426 c 0
 213 426 213 426 201 415 c 2
 151 365 l 2
 141 355 141 355 141 339 c 0
EndSplineSet
Validated: 545
EndChar

StartChar: reply
Encoding: 36 59427 36
Width: 1000
Flags: W
LayerCount: 2
Fore
SplineSet
0 493 m 0
 0 507 0 507 11 518 c 2
 296 804 l 2
 307 814 307 814 321 814 c 0
 335 814 335 814 347 804 c 0
 359 794 359 794 357 779 c 2
 357 636 l 1
 482 636 l 2
 880 636 880 636 970 411 c 0
 1000 336 1000 336 1000 225 c 0
 1000 132 1000 132 929 -27 c 0
 927 -31 927 -31 923 -40 c 0
 919 -49 919 -49 916 -57 c 0
 913 -65 913 -65 908 -69 c 0
 902 -79 902 -79 893 -79 c 0
 884 -79 884 -79 880 -73 c 0
 876 -67 876 -67 875 -59 c 0
 875 -54 875 -54 876 -44 c 0
 877 -34 877 -34 878 -31 c 0
 881 7 881 7 881 38 c 0
 881 94 881 94 871 139 c 0
 861 184 861 184 844 216 c 0
 827 248 827 248 799 272 c 0
 771 296 771 296 740 311 c 0
 709 326 709 326 666 335 c 0
 623 344 623 344 580 347 c 0
 537 350 537 350 482 350 c 2
 357 350 l 1
 357 207 l 2
 357 193 357 193 347 182 c 0
 337 171 337 171 321 171 c 0
 305 171 305 171 296 182 c 2
 11 468 l 2
 0 478 0 478 0 493 c 0
EndSplineSet
Validated: 1
EndChar

StartChar: power
Encoding: 37 59428 37
Width: 678
Flags: W
LayerCount: 2
Fore
SplineSet
339 75 m 0
 434 75 434 75 503 144 c 0
 572 213 572 213 573 310 c 0
 573 407 573 407 504 476 c 0
 489 491 489 491 489 512 c 0
 489 533 489 533 504 548 c 0
 519 563 519 563 541 563 c 0
 563 563 563 563 578 548 c 0
 678 448 678 448 678 310 c 0
 678 170 678 170 578 70 c 0
 479 -29 479 -29 339 -29 c 0
 198 -29 198 -29 99 70 c 0
 0 169 0 169 0 310 c 0
 0 450 0 450 99 548 c 0
 114 563 114 563 136 563 c 0
 158 563 158 563 173 548 c 0
 188 533 188 533 188 512 c 0
 188 491 188 491 173 476 c 0
 104 407 104 407 104 310 c 0
 104 213 104 213 173 144 c 0
 242 75 242 75 339 75 c 0
339 366 m 0
 318 366 318 366 302 381 c 0
 286 396 286 396 286 417 c 2
 286 678 l 2
 286 700 286 700 302 715 c 0
 318 730 318 730 339 730 c 0
 360 730 360 730 375 715 c 0
 390 700 390 700 390 678 c 2
 390 417 l 2
 390 396 390 396 375 381 c 0
 360 366 360 366 339 366 c 0
EndSplineSet
Validated: 1
EndChar

StartChar: link
Encoding: 38 59429 38
Width: 928
Flags: W
LayerCount: 2
Fore
SplineSet
9 600 m 128
 9 667 9 667 56 713 c 2
 138 795 l 2
 185 841 185 841 252 841 c 128
 319 841 319 841 366 794 c 2
 480 678 l 2
 527 632 527 632 527 565 c 0
 527 496 527 496 478 448 c 1
 527 399 l 1
 575 448 575 448 643 448 c 0
 710 448 710 448 757 401 c 2
 873 285 l 2
 920 238 920 238 920 171 c 128
 920 104 920 104 872 58 c 2
 790 -23 l 2
 744 -70 744 -70 677 -70 c 0
 609 -70 609 -70 563 -22 c 2
 448 93 l 2
 402 140 402 140 402 207 c 0
 402 275 402 275 451 323 c 1
 402 372 l 1
 354 323 354 323 286 323 c 0
 219 323 219 323 172 370 c 2
 56 486 l 2
 9 533 9 533 9 600 c 128
116 600 m 128
 116 578 116 578 132 562 c 2
 248 446 l 2
 263 431 263 431 286 431 c 128
 309 431 309 431 326 448 c 1
 324 450 324 450 315 459 c 128
 306 468 306 468 303 471 c 128
 300 474 300 474 295 481 c 128
 290 488 290 488 288 495 c 128
 286 502 286 502 286 511 c 0
 286 533 286 533 301 549 c 128
 316 565 316 565 339 564 c 0
 348 564 348 564 355 562 c 128
 362 560 362 560 369 555 c 128
 376 550 376 550 379 547 c 128
 382 544 382 544 391 535 c 128
 400 526 400 526 402 524 c 0
 420 541 420 541 420 565 c 0
 420 587 420 587 405 603 c 2
 290 718 l 2
 274 734 274 734 252 734 c 128
 230 734 230 734 214 719 c 2
 132 637 l 2
 116 622 116 622 116 600 c 128
508 207 m 128
 508 184 508 184 524 169 c 2
 639 53 l 2
 654 38 654 38 677 38 c 0
 699 38 699 38 715 53 c 2
 797 134 l 2
 812 150 812 150 812 171 c 0
 812 194 812 194 797 209 c 2
 681 325 l 2
 665 341 665 341 643 341 c 0
 619 341 619 341 603 323 c 0
 604 322 604 322 613 313 c 128
 622 304 622 304 625 301 c 128
 628 298 628 298 634 290 c 128
 640 282 640 282 641 276 c 128
 642 270 642 270 643 261 c 0
 643 238 643 238 627 223 c 128
 611 208 611 208 589 207 c 0
 581 207 581 207 574 209 c 128
 567 211 567 211 560 216 c 128
 553 221 553 221 549 225 c 128
 545 229 545 229 537 237 c 128
 529 245 529 245 527 247 c 0
 508 230 508 230 508 207 c 128
EndSplineSet
Validated: 33
EndChar
